# xmcd
#
# Track frame offsets:
#	150
#	19889
#	35833
#	53210
#	65825
#	83784
#	98607
#	113149
#	125525
#	143370
#	157389
#	169247
#	190851
#	208679
#	224038
#	237794
#
# Disc length: 3376
#
# Revision: 2
# Processed by: cddbd v1.5.1PL0 Copyright (c) Steve Scherf et al.
# Submitted via: audiograbber 1.82.01
# Normalized: r1:DSETVAR1
#
DISCID=ee0d2e10
DTITLE=Various Artist - The Winners 2003 [Disc 2]
DYEAR=2003
DGENRE=Country
TTITLE0=Melinda Schneider - The Story Of My Life
TTITLE1=Anne Kirkpatrick - Travellin' Still... Always Will
TTITLE2=Lucky Oceans and The White Pointers - Look At The Moon
TTITLE3=Donna Fisk and Michael Cristian - The Recipe
TTITLE4=Michael Carr - A Little More Love
TTITLE5=Troy Cassar-Daley and Paul Kelly - Wish I Was A Train
TTITLE6=Jeff Brown - The Ghost Of Three Rivers Hotel
TTITLE7=Colin Buchanan - Fishing Fraser Island
TTITLE8=Slim Dusty - Just An Old Cattle Dog
TTITLE9=Brendon Walmsley - Adam
TTITLE10=Michael Fix and Friends - Mulga Dan
TTITLE11=Sara Storer and Travis Sinclair - I'll Be Home Soon
TTITLE12=Graeme Connors - You're Getting To Me
TTITLE13=Bruce Rowland - Mustering The Colts
TTITLE14=Michael King - Bim Bam Boom
TTITLE15=Tania Kernaghan - A Farmer's Prayer
EXTD=
EXTT0=
EXTT1=
EXTT2=
EXTT3=
EXTT4=
EXTT5=
EXTT6=
EXTT7=
EXTT8=
EXTT9=
EXTT10=
EXTT11=
EXTT12=
EXTT13=
EXTT14=
EXTT15=
PLAYORDER=
